<?xml version="1.0" standalone="no"?>
<!DOCTYPE svg PUBLIC "-//W3C//DTD SVG 20010904//EN"
 "http://www.w3.org/TR/2001/REC-SVG-20010904/DTD/svg10.dtd">
<svg version="1.0" xmlns="http://www.w3.org/2000/svg"
 width="1115.000000pt" height="301.000000pt" viewBox="0 0 1115.000000 301.000000"
 preserveAspectRatio="xMidYMid meet">

<g transform="translate(0.000000,301.000000) scale(0.100000,-0.100000)"
fill="#fff" stroke="none">
<path d="M4464 2671 c-35 -21 -105 -109 -149 -186 -16 -27 -49 -79 -74 -115
-84 -123 -174 -327 -275 -622 l-97 -283 -64 -47 c-69 -52 -249 -154 -279 -160
-20 -3 -27 13 -41 102 -4 19 -13 71 -22 115 -8 44 -18 92 -20 106 -3 15 4 47
16 74 37 83 22 138 -38 138 -39 0 -97 -45 -128 -99 -25 -43 -30 -115 -13 -174
6 -19 12 -62 15 -95 2 -33 16 -100 30 -149 14 -48 23 -96 20 -105 -3 -9 -44
-41 -91 -71 -99 -63 -193 -145 -224 -195 -34 -55 -40 -88 -24 -136 22 -63 31
-75 69 -99 52 -32 92 -41 175 -40 134 1 220 64 271 198 20 54 25 149 16 287
-2 27 4 33 67 67 38 21 105 63 150 93 95 64 98 62 67 -62 -32 -129 -44 -239
-38 -342 6 -103 21 -150 63 -200 108 -128 252 -57 468 233 46 61 107 150 136
199 29 48 55 87 57 87 2 0 2 -4 -2 -9 -3 -6 -6 -40 -7 -78 -1 -79 21 -134 74
-178 42 -36 105 -64 141 -65 66 0 157 71 258 204 38 50 87 112 108 138 l39 47
7 -47 c13 -90 134 -166 151 -95 10 38 215 442 255 500 47 69 100 133 110 133
18 0 8 -32 -52 -172 -45 -105 -64 -162 -70 -213 -13 -110 -11 -122 19 -156 44
-50 69 -37 123 62 47 87 77 133 152 231 87 114 99 129 103 125 5 -5 -41 -129
-57 -157 -61 -105 -85 -265 -58 -389 20 -96 123 -156 198 -115 43 23 124 118
237 277 99 139 114 166 114 207 0 60 -8 54 -229 -207 -163 -192 -191 -209
-191 -113 0 38 16 90 69 222 78 193 98 276 81 337 -14 54 -34 71 -80 71 -28 0
-50 -9 -81 -33 -52 -39 -190 -213 -220 -277 -12 -25 -24 -39 -26 -33 -6 17 43
163 75 228 44 87 31 166 -33 201 -38 20 -71 14 -112 -20 -64 -54 -226 -322
-313 -516 l-24 -55 -3 41 c-3 25 4 61 17 93 11 28 20 60 20 70 0 10 16 39 35
64 19 25 35 54 35 65 0 26 -83 114 -101 107 -19 -8 -74 -122 -109 -227 -23
-71 -40 -102 -94 -167 -36 -45 -72 -93 -80 -108 -20 -38 -119 -133 -190 -182
-136 -94 -153 -41 -90 277 3 13 16 27 32 33 73 26 112 48 171 98 86 73 116
107 146 165 60 119 4 211 -134 223 -47 4 -64 0 -111 -24 -63 -32 -148 -127
-195 -219 -174 -338 -387 -661 -507 -768 -41 -38 -57 -46 -82 -44 -58 6 -70
67 -53 265 7 85 16 129 62 298 32 118 40 135 98 206 59 73 162 224 232 339 32
52 72 111 89 132 34 40 164 292 191 373 23 65 31 183 16 226 -32 94 -122 136
-197 90z m109 -159 c-10 -65 -42 -151 -110 -290 -37 -76 -70 -139 -73 -142 -4
-3 -15 -24 -25 -47 -11 -24 -22 -43 -27 -43 -4 0 -7 -3 -6 -7 4 -15 -161 -287
-169 -279 -7 7 89 295 154 461 109 278 214 448 249 400 7 -10 10 -31 7 -53z
m-294 -172 c-13 -23 -25 -37 -27 -32 -4 12 39 85 45 78 3 -3 -5 -23 -18 -46z
m689 -678 c3 -60 1 -64 -40 -118 -41 -52 -149 -144 -170 -144 -13 0 -3 29 48
138 56 121 109 194 138 190 18 -3 21 -11 24 -66z m602 -232 c-6 -23 -14 -40
-16 -37 -3 3 0 24 7 46 16 54 24 46 9 -9z m-1026 -256 c-9 -41 -20 -74 -24
-74 -12 0 1 103 18 145 24 57 28 20 6 -71z m-1186 -194 c-4 -55 -12 -81 -39
-127 -40 -67 -84 -94 -165 -101 -45 -4 -54 -2 -64 17 -9 18 -6 30 17 73 27 50
57 79 179 170 72 54 78 51 72 -32z m43 -260 c-13 -11 -28 -20 -35 -20 -6 0 3
9 19 20 38 25 47 25 16 0z"/>
<path d="M7556 2495 c-21 -7 -62 -30 -91 -50 -55 -38 -245 -239 -245 -259 0
-7 -14 -25 -31 -42 -37 -36 -126 -168 -167 -249 -36 -72 -113 -259 -137 -334
-12 -37 -18 -89 -19 -155 -1 -89 2 -108 25 -156 35 -76 84 -129 144 -156 61
-29 97 -30 154 -3 90 40 184 140 322 342 33 48 62 87 64 87 9 0 -140 -418
-224 -629 -84 -208 -150 -346 -217 -452 -91 -145 -170 -195 -210 -134 -50 77
51 321 222 536 35 44 64 85 64 90 0 24 -46 4 -93 -39 -29 -26 -82 -74 -120
-106 -81 -71 -149 -158 -191 -246 -26 -55 -31 -77 -31 -141 0 -80 10 -104 64
-162 39 -43 117 -79 182 -84 82 -8 129 22 212 132 75 100 245 417 281 525 14
41 62 163 106 270 117 278 210 515 210 532 0 9 22 58 50 109 31 59 50 107 50
128 0 44 -36 92 -88 115 -56 25 -87 16 -111 -33 -34 -71 -215 -295 -416 -516
-122 -134 -118 -130 -181 -161 -45 -21 -56 -23 -78 -13 -52 24 -47 88 18 241
145 339 297 583 484 777 75 78 113 100 148 87 17 -6 16 -44 -1 -141 -8 -42
-58 -139 -110 -213 -25 -35 -45 -68 -45 -73 0 -21 51 -7 106 29 77 50 173 147
202 204 24 49 27 83 13 138 -5 19 -12 47 -15 63 -10 41 -74 107 -131 133 -56
27 -112 30 -169 9z m-575 -792 c-12 -20 -14 -14 -5 12 4 9 9 14 11 11 3 -2 0
-13 -6 -23z m793 -155 c-12 -42 -67 -168 -71 -165 -4 5 17 65 48 135 24 54 36
69 23 30z"/>
<path d="M1025 2467 c-75 -25 -130 -60 -191 -121 -34 -35 -64 -74 -68 -91 -4
-16 -18 -47 -32 -68 -37 -56 -45 -85 -45 -154 0 -81 21 -123 61 -123 25 0 30
4 30 23 0 52 63 199 122 285 46 67 124 139 164 152 34 12 39 11 55 -9 23 -28
16 -76 -33 -221 -40 -121 -44 -134 -28 -110 18 26 -1 -40 -27 -95 -21 -44 -24
-34 -7 22 14 48 -67 -135 -146 -327 -48 -118 -113 -276 -144 -350 -111 -268
-114 -400 -9 -426 45 -12 74 22 114 137 69 197 111 271 392 694 137 206 206
296 306 396 88 88 146 128 162 112 15 -15 -69 -207 -155 -356 -158 -273 -237
-466 -267 -647 -16 -97 31 -200 91 -200 27 0 33 7 63 67 45 92 185 325 238
397 24 33 85 115 136 184 145 197 293 336 325 304 12 -12 -16 -138 -37 -162
-21 -25 -111 -210 -145 -301 -18 -46 -55 -134 -82 -196 -27 -61 -53 -136 -58
-165 -5 -29 -16 -82 -24 -118 -23 -95 -21 -242 4 -316 44 -130 139 -210 234
-200 96 11 226 101 226 156 0 26 -22 25 -80 -1 -61 -28 -164 -36 -212 -16 -90
38 -67 164 103 579 49 120 89 222 89 228 0 6 27 64 59 129 95 189 114 306 67
408 -60 128 -173 120 -326 -23 -81 -77 -193 -212 -262 -319 -126 -195 -158
-246 -158 -253 0 -5 -7 -17 -15 -28 -14 -18 -15 -17 -9 11 18 80 195 474 268
595 45 75 51 92 54 150 3 56 -1 73 -25 120 -20 40 -38 60 -65 73 -36 18 -39
18 -80 -1 -61 -27 -91 -55 -221 -205 -112 -129 -207 -255 -279 -368 -73 -114
-68 -86 42 236 64 189 81 271 68 344 -10 60 -47 131 -80 154 -33 25 -110 31
-163 14z m941 -1048 c-3 -17 -12 -45 -20 -62 -8 -18 -24 -54 -35 -81 -12 -27
-24 -47 -27 -43 -3 3 1 16 9 29 8 12 27 60 43 106 30 85 41 104 30 51z m-95
-230 c-5 -13 -10 -19 -10 -12 -1 15 10 45 15 40 3 -2 0 -15 -5 -28z"/>
<path d="M10075 2391 c-150 -38 -291 -265 -445 -718 -27 -80 -52 -148 -55
-151 -3 -3 -29 17 -58 45 -28 28 -62 56 -74 62 -60 30 -151 -3 -208 -75 -40
-50 -124 -175 -151 -222 -11 -20 -55 -65 -97 -99 -154 -125 -185 -63 -82 161
14 30 25 61 25 69 0 8 7 20 16 28 22 18 46 68 38 80 -10 17 -86 49 -117 49
-50 0 -90 -52 -116 -150 -12 -47 -27 -96 -34 -109 -16 -31 -165 -171 -183
-171 -22 0 -17 46 16 140 16 47 30 93 30 103 0 10 9 35 20 57 43 85 12 150
-64 136 -50 -9 -80 -38 -144 -134 -82 -125 -208 -279 -253 -309 -54 -36 -74
-26 -65 33 3 25 12 58 21 72 21 38 75 172 75 186 0 6 20 43 45 81 25 39 51 87
57 109 11 36 10 40 -11 57 -15 13 -39 19 -70 19 -40 0 -52 -5 -79 -32 -31 -33
-89 -128 -137 -225 -61 -123 -92 -333 -61 -408 22 -51 50 -60 120 -40 69 20
149 90 257 227 39 49 73 87 75 85 2 -1 -3 -25 -11 -52 -30 -99 -13 -180 45
-210 69 -36 138 -10 241 91 l65 65 12 -26 c22 -48 77 -113 112 -133 81 -45
119 -36 191 48 l44 51 -3 -72 c-4 -82 14 -142 54 -180 21 -20 36 -24 82 -24
67 0 102 21 218 129 40 36 75 66 78 66 3 0 6 -52 6 -115 0 -129 11 -170 62
-222 59 -61 122 -50 204 34 52 53 86 98 189 248 66 97 204 269 210 263 2 -2
-3 -41 -11 -88 -26 -162 -12 -236 57 -294 43 -37 106 -65 142 -66 69 0 160 73
269 215 38 49 118 153 179 230 114 144 129 180 80 180 -18 0 -35 -13 -58 -45
-212 -284 -296 -380 -387 -441 -60 -40 -93 -48 -114 -27 -17 17 -15 103 4 195
29 144 24 134 83 155 30 10 88 43 128 74 200 153 242 320 99 385 -135 61 -276
-29 -390 -251 -25 -47 -55 -95 -67 -105 -35 -32 -127 -149 -252 -321 -65 -88
-139 -185 -166 -215 -47 -51 -50 -53 -67 -37 -11 10 -19 37 -22 70 -4 60 40
363 63 429 8 23 53 90 100 150 47 59 85 111 85 114 0 9 52 76 106 138 50 56
147 210 200 317 45 91 58 203 30 258 -26 51 -111 80 -181 63z m91 -108 c13
-14 15 -29 11 -80 -8 -107 -76 -228 -345 -616 -29 -41 -48 -61 -50 -52 -5 20
109 353 159 466 54 123 124 243 160 274 36 30 42 30 65 8z m443 -577 c17 -44
1 -108 -41 -163 -52 -68 -159 -155 -174 -140 -6 6 71 179 102 229 34 55 74 98
91 98 7 0 18 -11 22 -24z m-909 -66 c0 -5 -5 -10 -11 -10 -5 0 -7 5 -4 10 3 6
8 10 11 10 2 0 4 -4 4 -10z m-222 -115 c12 -9 34 -36 48 -61 26 -44 26 -46 14
-126 -6 -45 -18 -94 -25 -108 -17 -32 -201 -211 -238 -229 -25 -13 -29 -13
-42 5 -20 26 -19 39 9 146 39 152 100 288 157 353 35 39 45 42 77 20z m-932
-96 c-8 -21 -15 -27 -15 -16 -1 17 20 59 27 53 1 -2 -4 -19 -12 -37z m1661
-156 c-3 -10 -8 -36 -12 -58 -9 -54 -27 -115 -34 -115 -10 0 5 121 19 158 12
33 35 46 27 15z"/>
<path d="M9002 2091 c-28 -7 -64 -61 -44 -68 6 -3 12 -14 12 -26 -1 -32 -52
-152 -77 -181 -26 -29 -29 -53 -11 -91 16 -35 43 -32 85 10 19 19 39 35 43 35
4 0 15 11 24 25 14 22 15 25 1 25 -19 0 -19 14 0 30 8 6 17 22 21 33 3 12 22
36 40 53 24 23 34 40 34 62 0 57 -69 107 -128 93z"/>
<path d="M2818 1905 c-45 -31 -102 -107 -125 -170 -10 -26 -25 -51 -33 -55
-153 -71 -192 -109 -270 -267 -48 -95 -54 -115 -54 -168 0 -135 91 -244 218
-261 87 -12 179 39 294 164 85 93 101 114 136 174 31 53 34 55 141 73 96 16
133 29 142 51 12 33 -12 37 -111 18 -53 -10 -98 -15 -101 -12 -3 3 3 41 14 84
51 203 31 286 -87 364 -58 38 -112 40 -164 5z m152 -74 c22 -41 8 -168 -35
-313 -25 -87 -40 -101 -100 -93 -116 18 -123 92 -26 297 50 105 133 161 161
109z m-295 -354 c26 -41 76 -74 142 -93 l54 -16 -24 -41 c-96 -162 -238 -274
-321 -253 -55 14 -43 104 39 285 47 106 73 151 84 151 3 -1 15 -15 26 -33z"/>
</g>
</svg>
