<svg xmlns="http://www.w3.org/2000/svg" xmlns:xlink="http://www.w3.org/1999/xlink" viewBox="0 0 134.167 84.167" fill="#fff" fill-rule="evenodd" stroke="#000" stroke-linecap="round" stroke-linejoin="round"><use xlink:href="#A" x="2.083" y="2.083"/><symbol id="A" overflow="visible"><g stroke="none" fill-rule="nonzero"><path d="M0 0h129.167v79.167H0z" fill="#1e50a0"/><path d="M72.917 24.7v6.55h21.208l35.042-21.479V0h-15.946L72.917 24.7z"/><path d="M129.167 0h-7.973L72.917 29.59v1.66h7.254l48.996-30.029V0z" fill="#d22f27"/><path d="M113.223 79.167h15.944v-9.775L94.13 47.917H72.917v6.548l40.306 24.702z"/><path d="M129.166 79.167v-4.89l-43.01-26.36h-9.973l50.988 31.25h1.996z" fill="#d22f27"/><path d="M56.25 54.467v-6.55H35.042L0 69.396v9.771h15.946l40.304-24.7z"/><path d="M0 79.167h7.973l48.277-29.59v-1.66h-7.254L0 77.946v1.221z" fill="#d22f27"/><path d="M15.944 0H0v9.775L35.038 31.25H56.25v-6.548L15.944 0z"/><path d="M0 0v4.89l43.013 26.36h9.971L1.996 0H0z" fill="#d22f27"/><path d="M0 29.167h129.167V50H0z"/><path d="M54.167 0H75v79.167H54.167z"/><g fill="#d22f27"><path d="M0 33.333h129.167v12.5H0z"/><path d="M58.333 0h12.5v79.167h-12.5z"/></g></g><path d="M0 0h129.167v79.167H0z" fill="none" stroke-width="4.167"/></symbol></svg>